<mxfile host="app.diagrams.net" modified="2024-02-11T18:07:39.906Z" agent="Mozilla/5.0 (Windows NT 10.0; Win64; x64) AppleWebKit/537.36 (KHTML, like Gecko) Chrome/121.0.0.0 Safari/537.36" etag="BEjqS1i3M9xAQF50nJ-E" version="23.1.2" type="device">
  <diagram name="Page-1" id="sl8W6zXEzXbvensbr99m">
    <mxGraphModel dx="2250" dy="753" grid="1" gridSize="10" guides="1" tooltips="1" connect="1" arrows="1" fold="1" page="1" pageScale="1" pageWidth="850" pageHeight="1100" math="0" shadow="0">
      <root>
        <mxCell id="0" />
        <mxCell id="1" parent="0" />
        <mxCell id="iLT3tA_PWAjlFJQJKWkf-1" value="" style="rounded=0;whiteSpace=wrap;html=1;" vertex="1" parent="1">
          <mxGeometry x="70" y="160" width="710" height="890" as="geometry" />
        </mxCell>
        <mxCell id="iLT3tA_PWAjlFJQJKWkf-2" value="&lt;b&gt;&lt;span style=&quot;white-space: pre;&quot;&gt;&#x9;&lt;/span&gt;Patient&lt;/b&gt;" style="shape=umlActor;verticalLabelPosition=bottom;verticalAlign=top;html=1;outlineConnect=0;" vertex="1" parent="1">
          <mxGeometry x="-50" y="300" width="90" height="240" as="geometry" />
        </mxCell>
        <mxCell id="iLT3tA_PWAjlFJQJKWkf-3" value="&lt;b&gt;Chatbot&lt;/b&gt;" style="shape=umlActor;verticalLabelPosition=bottom;verticalAlign=top;html=1;outlineConnect=0;" vertex="1" parent="1">
          <mxGeometry x="810" y="380" width="90" height="210" as="geometry" />
        </mxCell>
        <mxCell id="iLT3tA_PWAjlFJQJKWkf-5" value="&lt;b&gt;User Provides Symptoms&lt;/b&gt;" style="ellipse;whiteSpace=wrap;html=1;" vertex="1" parent="1">
          <mxGeometry x="120" y="200" width="160" height="70" as="geometry" />
        </mxCell>
        <mxCell id="iLT3tA_PWAjlFJQJKWkf-7" value="" style="endArrow=classic;html=1;rounded=0;exitX=0.5;exitY=0.5;exitDx=0;exitDy=0;exitPerimeter=0;entryX=0;entryY=0.5;entryDx=0;entryDy=0;" edge="1" parent="1" source="iLT3tA_PWAjlFJQJKWkf-2" target="iLT3tA_PWAjlFJQJKWkf-5">
          <mxGeometry width="50" height="50" relative="1" as="geometry">
            <mxPoint x="400" y="520" as="sourcePoint" />
            <mxPoint x="450" y="470" as="targetPoint" />
          </mxGeometry>
        </mxCell>
        <mxCell id="iLT3tA_PWAjlFJQJKWkf-8" value="&lt;b&gt;Chatbot Retrieves Hospital Data&lt;/b&gt;" style="ellipse;whiteSpace=wrap;html=1;" vertex="1" parent="1">
          <mxGeometry x="550" y="200" width="140" height="70" as="geometry" />
        </mxCell>
        <mxCell id="iLT3tA_PWAjlFJQJKWkf-9" value="" style="strokeWidth=2;html=1;shape=mxgraph.flowchart.database;whiteSpace=wrap;" vertex="1" parent="1">
          <mxGeometry x="590" y="300" width="60" height="60" as="geometry" />
        </mxCell>
        <mxCell id="iLT3tA_PWAjlFJQJKWkf-10" value="" style="endArrow=classic;html=1;rounded=0;exitX=1;exitY=0.5;exitDx=0;exitDy=0;entryX=0;entryY=0.5;entryDx=0;entryDy=0;" edge="1" parent="1" source="iLT3tA_PWAjlFJQJKWkf-5" target="iLT3tA_PWAjlFJQJKWkf-8">
          <mxGeometry width="50" height="50" relative="1" as="geometry">
            <mxPoint x="400" y="520" as="sourcePoint" />
            <mxPoint x="450" y="470" as="targetPoint" />
          </mxGeometry>
        </mxCell>
        <mxCell id="iLT3tA_PWAjlFJQJKWkf-11" value="&lt;b&gt;Hospital Database&lt;/b&gt;" style="text;html=1;align=center;verticalAlign=middle;resizable=0;points=[];autosize=1;strokeColor=none;fillColor=none;" vertex="1" parent="1">
          <mxGeometry x="555" y="370" width="130" height="30" as="geometry" />
        </mxCell>
        <mxCell id="iLT3tA_PWAjlFJQJKWkf-12" value="" style="endArrow=classic;html=1;rounded=0;exitX=0.5;exitY=1;exitDx=0;exitDy=0;entryX=0.5;entryY=0;entryDx=0;entryDy=0;entryPerimeter=0;" edge="1" parent="1" source="iLT3tA_PWAjlFJQJKWkf-8" target="iLT3tA_PWAjlFJQJKWkf-9">
          <mxGeometry width="50" height="50" relative="1" as="geometry">
            <mxPoint x="400" y="520" as="sourcePoint" />
            <mxPoint x="450" y="470" as="targetPoint" />
          </mxGeometry>
        </mxCell>
        <mxCell id="iLT3tA_PWAjlFJQJKWkf-13" value="&lt;b&gt;Hospital Database Responds&lt;/b&gt;" style="ellipse;whiteSpace=wrap;html=1;" vertex="1" parent="1">
          <mxGeometry x="545" y="450" width="140" height="70" as="geometry" />
        </mxCell>
        <mxCell id="iLT3tA_PWAjlFJQJKWkf-14" value="" style="endArrow=classic;html=1;rounded=0;exitX=0.469;exitY=0.993;exitDx=0;exitDy=0;exitPerimeter=0;entryX=0.5;entryY=0;entryDx=0;entryDy=0;" edge="1" parent="1" source="iLT3tA_PWAjlFJQJKWkf-11" target="iLT3tA_PWAjlFJQJKWkf-13">
          <mxGeometry width="50" height="50" relative="1" as="geometry">
            <mxPoint x="400" y="520" as="sourcePoint" />
            <mxPoint x="450" y="470" as="targetPoint" />
          </mxGeometry>
        </mxCell>
        <mxCell id="iLT3tA_PWAjlFJQJKWkf-15" value="&lt;b&gt;Chatbot Presents Hospital Information to patient&lt;/b&gt;" style="ellipse;whiteSpace=wrap;html=1;" vertex="1" parent="1">
          <mxGeometry x="370" y="420" width="140" height="70" as="geometry" />
        </mxCell>
        <mxCell id="iLT3tA_PWAjlFJQJKWkf-17" value="" style="endArrow=classic;html=1;rounded=0;entryX=1;entryY=1;entryDx=0;entryDy=0;" edge="1" parent="1" source="iLT3tA_PWAjlFJQJKWkf-13" target="iLT3tA_PWAjlFJQJKWkf-15">
          <mxGeometry width="50" height="50" relative="1" as="geometry">
            <mxPoint x="400" y="590" as="sourcePoint" />
            <mxPoint x="450" y="540" as="targetPoint" />
          </mxGeometry>
        </mxCell>
        <mxCell id="iLT3tA_PWAjlFJQJKWkf-18" value="" style="endArrow=classic;html=1;rounded=0;exitX=0.5;exitY=0.5;exitDx=0;exitDy=0;exitPerimeter=0;entryX=1;entryY=0.5;entryDx=0;entryDy=0;" edge="1" parent="1" source="iLT3tA_PWAjlFJQJKWkf-3" target="iLT3tA_PWAjlFJQJKWkf-8">
          <mxGeometry width="50" height="50" relative="1" as="geometry">
            <mxPoint x="400" y="600" as="sourcePoint" />
            <mxPoint x="450" y="550" as="targetPoint" />
          </mxGeometry>
        </mxCell>
        <mxCell id="iLT3tA_PWAjlFJQJKWkf-19" value="" style="endArrow=classic;html=1;rounded=0;exitX=0.5;exitY=0.5;exitDx=0;exitDy=0;exitPerimeter=0;entryX=0.006;entryY=0.398;entryDx=0;entryDy=0;entryPerimeter=0;" edge="1" parent="1" source="iLT3tA_PWAjlFJQJKWkf-2" target="iLT3tA_PWAjlFJQJKWkf-20">
          <mxGeometry width="50" height="50" relative="1" as="geometry">
            <mxPoint x="400" y="510" as="sourcePoint" />
            <mxPoint x="450" y="460" as="targetPoint" />
          </mxGeometry>
        </mxCell>
        <mxCell id="iLT3tA_PWAjlFJQJKWkf-20" value="&lt;b&gt;User Requests Hospital Guidance&lt;/b&gt;" style="ellipse;whiteSpace=wrap;html=1;" vertex="1" parent="1">
          <mxGeometry x="120" y="610" width="140" height="80" as="geometry" />
        </mxCell>
        <mxCell id="iLT3tA_PWAjlFJQJKWkf-22" value="&lt;b&gt;&amp;nbsp;Request&amp;nbsp; his Location&lt;/b&gt;" style="ellipse;whiteSpace=wrap;html=1;" vertex="1" parent="1">
          <mxGeometry x="550" y="605" width="140" height="90" as="geometry" />
        </mxCell>
        <mxCell id="iLT3tA_PWAjlFJQJKWkf-23" value="" style="endArrow=classic;html=1;rounded=0;exitX=0.5;exitY=0.5;exitDx=0;exitDy=0;exitPerimeter=0;entryX=1;entryY=0.5;entryDx=0;entryDy=0;" edge="1" parent="1" source="iLT3tA_PWAjlFJQJKWkf-3" target="iLT3tA_PWAjlFJQJKWkf-22">
          <mxGeometry width="50" height="50" relative="1" as="geometry">
            <mxPoint x="400" y="510" as="sourcePoint" />
            <mxPoint x="450" y="460" as="targetPoint" />
          </mxGeometry>
        </mxCell>
        <mxCell id="iLT3tA_PWAjlFJQJKWkf-24" value="" style="endArrow=classic;html=1;rounded=0;exitX=1;exitY=0.5;exitDx=0;exitDy=0;entryX=0;entryY=0.5;entryDx=0;entryDy=0;" edge="1" parent="1" source="iLT3tA_PWAjlFJQJKWkf-20" target="iLT3tA_PWAjlFJQJKWkf-22">
          <mxGeometry width="50" height="50" relative="1" as="geometry">
            <mxPoint x="400" y="510" as="sourcePoint" />
            <mxPoint x="450" y="460" as="targetPoint" />
          </mxGeometry>
        </mxCell>
        <mxCell id="iLT3tA_PWAjlFJQJKWkf-25" value="&lt;b&gt;User Provides Location&lt;/b&gt;" style="ellipse;whiteSpace=wrap;html=1;" vertex="1" parent="1">
          <mxGeometry x="560" y="750" width="120" height="80" as="geometry" />
        </mxCell>
        <mxCell id="iLT3tA_PWAjlFJQJKWkf-26" value="" style="endArrow=classic;html=1;rounded=0;exitX=0.5;exitY=1;exitDx=0;exitDy=0;entryX=0.5;entryY=0;entryDx=0;entryDy=0;" edge="1" parent="1" source="iLT3tA_PWAjlFJQJKWkf-22" target="iLT3tA_PWAjlFJQJKWkf-25">
          <mxGeometry width="50" height="50" relative="1" as="geometry">
            <mxPoint x="400" y="690" as="sourcePoint" />
            <mxPoint x="450" y="640" as="targetPoint" />
          </mxGeometry>
        </mxCell>
        <mxCell id="iLT3tA_PWAjlFJQJKWkf-27" value="&lt;b&gt;Notify User about Database Error&lt;/b&gt;" style="ellipse;whiteSpace=wrap;html=1;" vertex="1" parent="1">
          <mxGeometry x="160" y="380" width="140" height="70" as="geometry" />
        </mxCell>
        <mxCell id="iLT3tA_PWAjlFJQJKWkf-28" value="&lt;b&gt;End of conversation&lt;/b&gt;" style="ellipse;whiteSpace=wrap;html=1;" vertex="1" parent="1">
          <mxGeometry x="150" y="470" width="140" height="70" as="geometry" />
        </mxCell>
        <mxCell id="iLT3tA_PWAjlFJQJKWkf-29" value="" style="endArrow=classic;html=1;rounded=0;exitX=0.049;exitY=0.3;exitDx=0;exitDy=0;exitPerimeter=0;entryX=1;entryY=0.5;entryDx=0;entryDy=0;" edge="1" parent="1" source="iLT3tA_PWAjlFJQJKWkf-15" target="iLT3tA_PWAjlFJQJKWkf-27">
          <mxGeometry width="50" height="50" relative="1" as="geometry">
            <mxPoint x="400" y="690" as="sourcePoint" />
            <mxPoint x="450" y="640" as="targetPoint" />
          </mxGeometry>
        </mxCell>
        <mxCell id="iLT3tA_PWAjlFJQJKWkf-31" value="Extent" style="edgeLabel;html=1;align=center;verticalAlign=middle;resizable=0;points=[];" vertex="1" connectable="0" parent="iLT3tA_PWAjlFJQJKWkf-29">
          <mxGeometry x="-0.0691" y="-2" relative="1" as="geometry">
            <mxPoint as="offset" />
          </mxGeometry>
        </mxCell>
        <mxCell id="iLT3tA_PWAjlFJQJKWkf-30" value="" style="endArrow=classic;html=1;rounded=0;exitX=0;exitY=1;exitDx=0;exitDy=0;entryX=1;entryY=0.5;entryDx=0;entryDy=0;" edge="1" parent="1" source="iLT3tA_PWAjlFJQJKWkf-15" target="iLT3tA_PWAjlFJQJKWkf-28">
          <mxGeometry width="50" height="50" relative="1" as="geometry">
            <mxPoint x="400" y="690" as="sourcePoint" />
            <mxPoint x="450" y="640" as="targetPoint" />
          </mxGeometry>
        </mxCell>
        <mxCell id="iLT3tA_PWAjlFJQJKWkf-32" value="include" style="edgeLabel;html=1;align=center;verticalAlign=middle;resizable=0;points=[];" vertex="1" connectable="0" parent="iLT3tA_PWAjlFJQJKWkf-30">
          <mxGeometry x="0.1072" y="2" relative="1" as="geometry">
            <mxPoint y="-1" as="offset" />
          </mxGeometry>
        </mxCell>
        <mxCell id="iLT3tA_PWAjlFJQJKWkf-33" value="" style="strokeWidth=2;html=1;shape=mxgraph.flowchart.database;whiteSpace=wrap;" vertex="1" parent="1">
          <mxGeometry x="420" y="875" width="60" height="60" as="geometry" />
        </mxCell>
        <mxCell id="iLT3tA_PWAjlFJQJKWkf-37" value="&lt;b&gt;&amp;nbsp;database&lt;/b&gt;" style="text;html=1;align=center;verticalAlign=middle;resizable=0;points=[];autosize=1;strokeColor=none;fillColor=none;" vertex="1" parent="1">
          <mxGeometry x="410" y="940" width="80" height="30" as="geometry" />
        </mxCell>
        <mxCell id="iLT3tA_PWAjlFJQJKWkf-38" value="" style="endArrow=classic;html=1;rounded=0;exitX=0.5;exitY=1;exitDx=0;exitDy=0;entryX=0.5;entryY=0;entryDx=0;entryDy=0;" edge="1" parent="1" source="iLT3tA_PWAjlFJQJKWkf-25" target="iLT3tA_PWAjlFJQJKWkf-39">
          <mxGeometry width="50" height="50" relative="1" as="geometry">
            <mxPoint x="400" y="920" as="sourcePoint" />
            <mxPoint x="450" y="870" as="targetPoint" />
          </mxGeometry>
        </mxCell>
        <mxCell id="iLT3tA_PWAjlFJQJKWkf-39" value="&lt;b&gt;Chatbot Retrieves Hospital Data&lt;/b&gt;" style="ellipse;whiteSpace=wrap;html=1;" vertex="1" parent="1">
          <mxGeometry x="550" y="870" width="140" height="70" as="geometry" />
        </mxCell>
        <mxCell id="iLT3tA_PWAjlFJQJKWkf-40" value="" style="endArrow=classic;html=1;rounded=0;exitX=0;exitY=0.5;exitDx=0;exitDy=0;entryX=1;entryY=0.5;entryDx=0;entryDy=0;entryPerimeter=0;" edge="1" parent="1" source="iLT3tA_PWAjlFJQJKWkf-39" target="iLT3tA_PWAjlFJQJKWkf-33">
          <mxGeometry width="50" height="50" relative="1" as="geometry">
            <mxPoint x="400" y="750" as="sourcePoint" />
            <mxPoint x="450" y="700" as="targetPoint" />
          </mxGeometry>
        </mxCell>
        <mxCell id="iLT3tA_PWAjlFJQJKWkf-41" value="&lt;b&gt;Chatbot Provides Hospital Information&lt;/b&gt;" style="ellipse;whiteSpace=wrap;html=1;" vertex="1" parent="1">
          <mxGeometry x="230" y="870" width="140" height="70" as="geometry" />
        </mxCell>
        <mxCell id="iLT3tA_PWAjlFJQJKWkf-42" value="" style="endArrow=classic;html=1;rounded=0;exitX=0;exitY=0.5;exitDx=0;exitDy=0;exitPerimeter=0;entryX=1;entryY=0.5;entryDx=0;entryDy=0;" edge="1" parent="1" source="iLT3tA_PWAjlFJQJKWkf-33" target="iLT3tA_PWAjlFJQJKWkf-41">
          <mxGeometry width="50" height="50" relative="1" as="geometry">
            <mxPoint x="400" y="750" as="sourcePoint" />
            <mxPoint x="450" y="700" as="targetPoint" />
          </mxGeometry>
        </mxCell>
        <mxCell id="iLT3tA_PWAjlFJQJKWkf-43" value="&lt;b&gt;User Receives Guidance&lt;/b&gt;" style="ellipse;whiteSpace=wrap;html=1;" vertex="1" parent="1">
          <mxGeometry x="230" y="970" width="140" height="70" as="geometry" />
        </mxCell>
        <mxCell id="iLT3tA_PWAjlFJQJKWkf-44" value="" style="endArrow=classic;html=1;rounded=0;exitX=0.5;exitY=1;exitDx=0;exitDy=0;entryX=0.5;entryY=0;entryDx=0;entryDy=0;" edge="1" parent="1" source="iLT3tA_PWAjlFJQJKWkf-41" target="iLT3tA_PWAjlFJQJKWkf-43">
          <mxGeometry width="50" height="50" relative="1" as="geometry">
            <mxPoint x="400" y="850" as="sourcePoint" />
            <mxPoint x="450" y="800" as="targetPoint" />
          </mxGeometry>
        </mxCell>
      </root>
    </mxGraphModel>
  </diagram>
</mxfile>
